<svg xmlns="http://www.w3.org/2000/svg" width="101" height="18" fill="none" viewBox="0 0 101 18"><path fill="#111" d="M1.22 16.47a6.8 6.8 0 0 1-1.2-4.34V5.87A6.9 6.9 0 0 1 1.2 1.49C2 .49 3.35-.01 5.28 0 7.2 0 8.5.44 9.18 1.31a5.51 5.51 0 0 1 1.14 3.75v1.47H6.77v-1.6c0-.41-.04-.83-.11-1.24a1.4 1.4 0 0 0-.4-.8 1.35 1.35 0 0 0-1-.3c-.25-.04-.5 0-.74.1-.23.12-.42.3-.54.52a4.46 4.46 0 0 0-.3 1.84V13a3.9 3.9 0 0 0 .34 1.84c.13.21.31.38.53.49.22.1.47.15.72.12.24.03.48 0 .7-.12.22-.1.39-.28.5-.5.2-.59.3-1.2.26-1.83v-1.67h3.55v1.45a5.94 5.94 0 0 1-1.05 3.85C8.47 17.55 7.17 18 5.32 18s-3.3-.5-4.1-1.53ZM15.16.24h4.06l3.43 17.55h-3.38l-.6-3.88h-2.85l-.69 3.86H11.7L15.16.24Zm3.13 11.47L17.2 4.65l-1.08 7.06h2.16ZM25.28 2.88h-2.77V.24h9.19v2.64h-2.74v14.89h-3.68V2.88Z"/><path fill="#444" d="M38.91.24h6.98v1.82h-4.46v5.8h3.62v1.72h-3.62v6.43h4.5v1.76H38.9V.24ZM47.95.24h1.72l5.14 11.64V.24h2.1V17.8h-1.6L50.15 5.82v11.95h-2.13L47.95.24ZM59.68.24h6.96v1.82h-4.46v5.8h3.66v1.72h-3.62v6.43h4.47v1.76h-7.01V.24ZM68.7.24h3.63a6.12 6.12 0 0 1 4 1.1c.86.72 1.28 1.91 1.28 3.56 0 2.23-.74 3.59-2.22 4.08l2.57 8.79h-2.43l-2.36-8.23h-1.95v8.23h-2.51V.24Zm3.44 7.52c.83.08 1.65-.15 2.32-.63a2.96 2.96 0 0 0 .7-2.27 4.78 4.78 0 0 0-.25-1.67 1.57 1.57 0 0 0-.86-.9 4.18 4.18 0 0 0-1.76-.3h-1.1v5.8l.95-.03ZM81 16.47A7.57 7.57 0 0 1 79.9 12V6.15a11 11 0 0 1 .43-3.34c.25-.82.77-1.53 1.5-2.02.86-.5 1.86-.75 2.87-.7a4.62 4.62 0 0 1 3.59 1.24 5.74 5.74 0 0 1 1.1 3.87v.65h-2.36v-.54c.01-.65-.04-1.3-.16-1.94a1.67 1.67 0 0 0-.65-1.03A2.63 2.63 0 0 0 84.75 2a2.2 2.2 0 0 0-1.56.47c-.35.32-.58.76-.66 1.23-.1.69-.15 1.39-.14 2.08v6.51c-.07 1 .1 1.98.5 2.9a2.42 2.42 0 0 0 1.94.87 2.48 2.48 0 0 0 1.9-.95c.41-.97.6-2 .52-3.05v-1.24h-2.28V9.1h4.55v8.68h-1.56l-.25-2.02c-.2.67-.61 1.26-1.2 1.66-.58.4-1.28.6-2 .57a4.09 4.09 0 0 1-3.52-1.5ZM94.73 11.58 90.85.24h2.33l2.75 8.46L98.64.24H101l-3.86 11.34v6.19h-2.4v-6.19Z"/></svg>